HIERARCHY
ROOT Hips
{
    OFFSET 0.000000 0.000000 0.000000
    CHANNELS 6 Xposition Yposition Zposition Zrotation Xrotation Yrotation
    JOINT Spine
    {
        OFFSET -0.000000 14.517291 0.000000
        CHANNELS 3 Zrotation Xrotation Yrotation
        JOINT Spine1
        {
            OFFSET -0.000000 37.558300 0.000000
            CHANNELS 3 Zrotation Xrotation Yrotation
            JOINT Neck
            {
                OFFSET -0.000000 37.404057 3.400369
                CHANNELS 3 Zrotation Xrotation Yrotation
                JOINT Head
                {
                    OFFSET -0.000000 24.785618 -3.540803
                    CHANNELS 3 Zrotation Xrotation Yrotation
                    End Site
                    {
                        OFFSET -0.000000 35.408028 0.000000
                    }
                }
            }
            JOINT LeftShoulder
            {
                OFFSET 6.992933 33.973492 -0.192664
                CHANNELS 3 Zrotation Xrotation Yrotation
                JOINT LeftArm
                {
                    OFFSET 21.527611 0.000000 0.000000
                    CHANNELS 3 Zrotation Xrotation Yrotation
                    JOINT LeftForeArm
                    {
                        OFFSET 56.353916 0.000000 0.000000
                        CHANNELS 3 Zrotation Xrotation Yrotation
                        JOINT LeftHand
                        {
                            OFFSET 47.774071 0.000000 0.000000
                            CHANNELS 3 Zrotation Xrotation Yrotation
                            End Site
                            {
                                OFFSET 26.556021 0.000000 0.000000
                            }
                        }
                    }
                }
            }
            JOINT RightShoulder
            {
                OFFSET -7.065357 33.973492 -0.192664
                CHANNELS 3 Zrotation Xrotation Yrotation
                JOINT RightArm
                {
                    OFFSET -21.527611 0.000000 0.000000
                    CHANNELS 3 Zrotation Xrotation Yrotation
                    JOINT RightForeArm
                    {
                        OFFSET -56.353916 0.000000 0.000000
                        CHANNELS 3 Zrotation Xrotation Yrotation
                        JOINT RightHand
                        {
                            OFFSET -47.774071 0.000000 0.000000
                            CHANNELS 3 Zrotation Xrotation Yrotation
                            End Site
                            {
                                OFFSET -26.556021 0.000000 0.000000
                            }
                        }
                    }
                }
            }
        }
    }
    JOINT LeftUpLeg
    {
        OFFSET 17.704014 0.000000 0.000000
        CHANNELS 3 Zrotation Xrotation Yrotation
        JOINT LeftLeg
        {
            OFFSET -0.000000 -81.181816 0.000000
            CHANNELS 3 Zrotation Xrotation Yrotation
            JOINT LeftFoot
            {
                OFFSET -0.000000 -62.821102 0.000000
                CHANNELS 3 Zrotation Xrotation Yrotation
                JOINT LeftToeBase
                {
                    OFFSET -0.000000 -11.507608 26.556021
                    CHANNELS 3 Zrotation Xrotation Yrotation
                    End Site
                    {
                        OFFSET -0.000000 0.000000 7.081605
                    }
                }
            }
        }
    }
    JOINT RightUpLeg
    {
        OFFSET -17.704014 0.000000 0.000000
        CHANNELS 3 Zrotation Xrotation Yrotation
        JOINT RightLeg
        {
            OFFSET -0.000000 -81.181816 0.000000
            CHANNELS 3 Zrotation Xrotation Yrotation
            JOINT RightFoot
            {
                OFFSET -0.000000 -62.821102 0.000000
                CHANNELS 3 Zrotation Xrotation Yrotation
                JOINT RightToeBase
                {
                    OFFSET -0.000000 -11.507608 26.556021
                    CHANNELS 3 Zrotation Xrotation Yrotation
                    End Site
                    {
                        OFFSET -0.000000 0.000000 7.081605
                    }
                }
            }
        }
    }
}
MOTION
Frames:    11
Frame Time:    0.008333
-25.165766    159.923355    -6.538245    -4.310040    0.420848    46.795864    -0.317219    1.169307    13.995961    -2.128657    0.266519    4.669159    -7.796375    6.977393    -15.429257    17.734722    -10.844282    -11.265452    -1.257031    2.880643    -2.455924    -38.448833    16.910704    -39.282780    -13.347179    -3.664884    -136.351303    -9.552745    -34.786816    -12.019290    -2.411591    14.892389    -2.582446    48.618164    14.308451    32.783802    -57.190845    -38.979988    21.170195    6.724193    -28.020176    24.585428    -1.145310    -27.198452    -32.636475    -10.206681    23.204447    -31.397167    -10.465776    -4.595189    22.236719    0.000000    0.000000    0.000000    4.542469    6.303086    -25.074377    6.683411    33.375187    -7.385599    20.530167    13.307012    -4.563044    0.000000    0.000000    0.000000    
-25.168995    159.909897    -6.547834    -4.302166    0.420574    46.857704    -0.283028    1.158120    13.979267    -2.129740    0.276671    4.663903    -7.816579    6.960897    -15.454407    17.713997    -10.815621    -11.298109    -1.248928    2.869734    -2.449873    -38.445900    16.891380    -39.280880    -13.351403    -3.655497    -136.366974    -9.541372    -34.800732    -12.031528    -2.435983    14.897716    -2.601533    48.689137    14.199142    32.738823    -57.078751    -38.981457    21.336910    6.761095    -27.954983    24.589388    -1.175587    -27.220240    -32.638397    -10.221177    23.230312    -31.431185    -10.479609    -4.565912    22.226412    0.000000    0.000000    0.000000    4.541738    6.311788    -25.083048    6.681635    33.372215    -7.395017    20.622644    13.300424    -4.561033    0.000000    0.000000    0.000000    
-25.172256    159.892700    -6.556558    -4.293741    0.419393    46.920097    -0.254804    1.149920    13.963195    -2.129223    0.274897    4.658612    -7.804186    6.973214    -15.465031    17.664804    -10.835448    -11.319816    -1.237914    2.869058    -2.440048    -38.440479    16.884474    -39.288197    -13.335138    -3.683959    -136.378448    -9.574302    -34.792027    -12.046556    -2.438797    14.899816    -2.630125    48.732197    14.137890    32.688686    -56.962254    -39.051361    21.535837    6.976921    -27.920876    24.544313    -1.210154    -27.240143    -32.635933    -10.226598    23.258097    -31.442152    -10.469370    -4.530481    22.183281    0.000000    0.000000    0.000000    4.531201    6.311145    -25.074741    6.693825    33.381721    -7.632086    20.672667    13.398973    -4.355841    0.000000    0.000000    0.000000    
-25.172150    159.876434    -6.568787    -4.284079    0.421492    46.982143    -0.225911    1.137014    13.949873    -2.132102    0.282392    4.654407    -7.806816    6.965598    -15.486650    17.634525    -10.829171    -11.349808    -1.236287    2.863750    -2.434740    -38.432854    16.884819    -39.295876    -13.331849    -3.707833    -136.405731    -9.552129    -34.828964    -12.012144    -2.446751    14.892490    -2.653358    48.742466    14.075493    32.650928    -56.943802    -38.976372    21.544168    6.747799    -27.877769    24.579372    -1.245813    -27.259357    -32.652512    -10.243044    23.277010    -31.447762    -10.429827    -4.480573    22.141600    0.000000    0.000000    0.000000    4.517279    6.310567    -25.069548    6.706498    33.396706    -7.648376    20.748219    13.401413    -4.336420    0.000000    0.000000    0.000000    
-25.172132    159.863831    -6.577811    -4.276003    0.431060    47.037010    -0.199402    1.110163    13.942446    -2.140867    0.302009    4.652406    -7.817123    6.977369    -15.500706    17.639050    -10.857606    -11.359193    -1.236907    2.845853    -2.442567    -38.429241    16.872677    -39.279446    -13.332844    -3.712333    -136.432358    -9.541488    -34.857864    -11.987530    -2.453044    14.892556    -2.684047    48.770348    14.015124    32.628151    -56.890335    -38.964020    21.623053    6.770142    -27.831533    24.580574    -1.282163    -27.282543    -32.649662    -10.244260    23.298223    -31.478321    -10.435835    -4.441759    22.107504    0.000000    0.000000    0.000000    4.501078    6.301267    -25.072258    6.699475    33.415329    -7.631627    20.842958    13.395253    -4.353832    0.000000    0.000000    0.000000    
-25.175064    159.851913    -6.593683    -4.267262    0.442619    47.091564    -0.188238    1.092453    13.938225    -2.129531    0.306027    4.651093    -7.854594    6.974654    -15.514104    17.665720    -10.857289    -11.363587    -1.252681    2.837665    -2.437520    -38.412529    16.879583    -39.282997    -13.325848    -3.726703    -136.443497    -9.522293    -34.862946    -12.000253    -2.467057    14.888396    -2.710993    48.800224    13.964119    32.584854    -56.786392    -39.028812    21.778261    7.008843    -27.806223    24.545670    -1.319258    -27.306559    -32.658421    -10.260815    23.309702    -31.464449    -10.424709    -4.386240    22.060539    0.000000    0.000000    0.000000    4.479376    6.287169    -25.072289    6.701915    33.438313    -7.606077    20.938107    13.383114    -4.374299    0.000000    0.000000    0.000000    
-25.176603    159.843842    -6.601106    -4.250073    0.447025    47.146084    -0.180880    1.071892    13.935768    -2.127190    0.325595    4.650653    -7.872869    6.987285    -15.529264    17.709412    -10.876646    -11.365618    -1.249072    2.835767    -2.447617    -38.413750    16.879721    -39.279327    -13.316416    -3.748039    -136.455597    -9.543059    -34.866344    -12.001779    -2.463831    14.878939    -2.722686    48.789368    13.909736    32.550285    -56.781532    -38.956684    21.739250    6.776694    -27.786577    24.601070    -1.353080    -27.313047    -32.662598    -10.271935    23.314144    -31.489895    -10.420982    -4.345602    22.045755    0.000000    0.000000    0.000000    4.458131    6.284389    -25.043703    6.726797    33.453999    -7.636724    20.990067    13.397996    -4.377368    0.000000    0.000000    0.000000    
-25.181845    159.834412    -6.610624    -4.238112    0.453456    47.202366    -0.173286    1.056518    13.931370    -2.123850    0.339450    4.649461    -7.893095    6.981620    -15.541520    17.745441    -10.895667    -11.364973    -1.256322    2.826570    -2.450071    -38.413494    16.865877    -39.270809    -13.311055    -3.731080    -136.460114    -9.534495    -34.843769    -12.008338    -2.459102    14.860642    -2.753802    48.794163    13.857952    32.524654    -56.717884    -38.946537    21.798620    6.767824    -27.762819    24.570738    -1.383862    -27.329189    -32.674614    -10.291404    23.323277    -31.507027    -10.408049    -4.300166    22.031317    0.000000    0.000000    0.000000    4.443583    6.267529    -25.021107    6.738333    33.482079    -7.645638    21.074718    13.406443    -4.411616    0.000000    0.000000    0.000000    
-25.187960    159.824310    -6.619201    -4.217319    0.458616    47.257206    -0.170425    1.057593    13.926013    -2.135109    0.337496    4.647676    -7.878726    6.990693    -15.553825    17.758358    -10.932881    -11.371157    -1.244700    2.845035    -2.443309    -38.430019    16.841722    -39.277729    -13.307214    -3.721424    -136.451431    -9.591629    -34.813953    -12.030358    -2.451557    14.854217    -2.764062    48.772316    13.882824    32.499733    -56.768017    -38.951859    21.731245    6.765194    -27.790932    24.590078    -1.419948    -27.337389    -32.678337    -10.304032    23.333988    -31.516500    -10.406423    -4.258059    22.000851    0.000000    0.000000    0.000000    4.423683    6.257608    -24.997963    6.752921    33.511612    -7.661506    21.148920    13.408661    -4.435941    0.000000    0.000000    0.000000    
-25.198858    159.814621    -6.629208    -4.203462    0.461655    47.312927    -0.178866    1.044261    13.928372    -2.114391    0.357495    4.648753    -7.867785    6.989397    -15.578333    17.759306    -10.976064    -11.391000    -1.249894    2.838064    -2.449691    -38.445461    16.834671    -39.272259    -13.301416    -3.706335    -136.449203    -9.564212    -34.790131    -12.014081    -2.449297    14.822775    -2.797197    48.759670    13.872379    32.478485    -56.764389    -38.948742    21.712826    6.772675    -27.796211    24.585815    -1.447964    -27.348860    -32.676128    -10.311054    23.339985    -31.552235    -10.388875    -4.211106    21.980463    0.000000    0.000000    0.000000    4.409573    6.242854    -24.940861    6.799390    33.543041    -7.697181    21.196466    13.387821    -4.474597    0.000000    0.000000    0.000000    
-25.208536    159.804092    -6.637852    -4.183323    0.457863    47.368465    -0.183889    1.050330    13.921718    -2.100686    0.351727    4.646361    -7.859599    7.031927    -15.590458    17.771013    -11.051745    -11.393316    -1.258431    2.853942    -2.448334    -38.458363    16.819441    -39.260193    -13.309442    -3.689130    -136.435547    -9.589681    -34.781033    -12.024315    -2.453254    14.824973    -2.796900    48.748882    13.857725    32.459938    -56.763519    -38.968327    21.693163    6.749952    -27.833454    24.576376    -1.473298    -27.351080    -32.677788    -10.332947    23.350536    -31.560623    -10.369054    -4.173763    21.961624    0.000000    0.000000    0.000000    4.397520    6.241532    -24.908216    6.826344    33.567608    -7.708160    21.237478    13.377915    -4.488022    0.000000    0.000000    0.000000    
